<svg id="Grupo_1069" data-name="Grupo 1069" xmlns="http://www.w3.org/2000/svg" width="57.741" height="40.599" viewBox="0 0 57.741 40.599">
  <path id="Caminho_211" data-name="Caminho 211" d="M52.666,76H5.075A5.082,5.082,0,0,0,0,81.075v30.45A5.082,5.082,0,0,0,5.075,116.6H52.666a5.082,5.082,0,0,0,5.075-5.075V81.075A5.082,5.082,0,0,0,52.666,76Zm-.779,3.383L30.182,101.16a1.975,1.975,0,0,1-2.622,0L5.854,79.383ZM3.383,110.9V81.7L17.939,96.3Zm2.471,2.314L20.327,98.7l4.836,4.852a5.354,5.354,0,0,0,7.414,0L37.414,98.7l14.473,14.52Zm48.5-2.314L39.8,96.3,54.358,81.7Z" transform="translate(0 -76)" fill="#fff"/>
</svg>
