<svg id="discount" xmlns="http://www.w3.org/2000/svg" width="33.705" height="33.707" viewBox="0 0 33.705 33.707">
  <path id="Caminho_145" data-name="Caminho 145" d="M31.295,13.149A6.029,6.029,0,0,1,29.774,11.5a6.234,6.234,0,0,1-.113-2.351c.091-1.468.193-3.133-.89-4.213s-2.745-.98-4.213-.89a6.247,6.247,0,0,1-2.351-.114,6.032,6.032,0,0,1-1.648-1.522C19.569,1.282,18.448,0,16.853,0s-2.715,1.282-3.7,2.412A6.046,6.046,0,0,1,11.5,3.933a6.234,6.234,0,0,1-2.351.113c-1.467-.091-3.132-.192-4.213.891S3.956,7.683,4.047,9.15A6.234,6.234,0,0,1,3.934,11.5a6.029,6.029,0,0,1-1.522,1.647C1.281,14.138,0,15.259,0,16.853s1.281,2.715,2.412,3.7A6.029,6.029,0,0,1,3.933,22.2a6.238,6.238,0,0,1,.113,2.352c-.091,1.467-.193,3.132.89,4.213s2.745.981,4.213.89a6.247,6.247,0,0,1,2.351.114,6.032,6.032,0,0,1,1.647,1.521c.989,1.13,2.107,2.412,3.7,2.412s2.715-1.282,3.7-2.412A6.046,6.046,0,0,1,22.2,29.774a6.234,6.234,0,0,1,2.351-.113c1.467.091,3.133.193,4.213-.891s.982-2.746.891-4.213a6.238,6.238,0,0,1,.113-2.352,6.029,6.029,0,0,1,1.521-1.646c1.131-.989,2.412-2.107,2.412-3.7S32.426,14.138,31.295,13.149Zm-1.386,5.824A7.21,7.21,0,0,0,27.827,21.4a7.5,7.5,0,0,0-.269,3.287c.062,1.024.134,2.185-.278,2.6s-1.572.338-2.6.278a7.515,7.515,0,0,0-3.287.269,7.221,7.221,0,0,0-2.423,2.081c-.73.834-1.483,1.694-2.121,1.694s-1.391-.86-2.119-1.692a7.221,7.221,0,0,0-2.423-2.081,5.171,5.171,0,0,0-1.989-.323c-.432,0-.87.027-1.3.054-1.025.064-2.184.135-2.6-.277s-.339-1.572-.277-2.594A7.507,7.507,0,0,0,5.878,21.4,7.21,7.21,0,0,0,3.8,18.975c-.83-.731-1.69-1.483-1.69-2.121s.86-1.39,1.692-2.119A7.21,7.21,0,0,0,5.88,12.311a7.5,7.5,0,0,0,.269-3.287c-.062-1.026-.134-2.187.277-2.6S8,6.086,9.021,6.147a7.479,7.479,0,0,0,3.287-.269A7.221,7.221,0,0,0,14.731,3.8c.731-.831,1.484-1.691,2.122-1.691s1.391.86,2.119,1.692A7.221,7.221,0,0,0,21.4,5.88a7.505,7.505,0,0,0,3.289.27c1.026-.063,2.184-.135,2.6.277s.339,1.572.277,2.594a7.507,7.507,0,0,0,.269,3.289,7.21,7.21,0,0,0,2.081,2.423c.834.731,1.694,1.483,1.694,2.121S30.741,18.244,29.908,18.973Z" fill="#00a9e0"/>
  <path id="Caminho_146" data-name="Caminho 146" d="M15.32,12.16a3.16,3.16,0,1,0-3.16,3.16A3.16,3.16,0,0,0,15.32,12.16Zm-4.213,0a1.053,1.053,0,1,1,1.053,1.053A1.053,1.053,0,0,1,11.107,12.16Z" transform="translate(0.48 0.48)" fill="#00a9e0"/>
  <path id="Caminho_147" data-name="Caminho 147" d="M20.16,17a3.16,3.16,0,1,0,3.16,3.16A3.16,3.16,0,0,0,20.16,17Zm0,4.213a1.053,1.053,0,1,1,1.053-1.053A1.053,1.053,0,0,1,20.16,21.213Z" transform="translate(0.907 0.907)" fill="#00a9e0"/>
  <path id="Caminho_148" data-name="Caminho 148" d="M22.307,10.333a.993.993,0,0,0-1.465-.024L10.308,20.842c-.943.943.527,2.455,1.489,1.489L22.331,11.8a1,1,0,0,0-.024-1.465Z" transform="translate(0.534 0.533)" fill="#00a9e0"/>
</svg>
