<svg xmlns="http://www.w3.org/2000/svg" width="24.275" height="35.813" viewBox="0 0 24.275 35.813">
  <g id="employee" transform="translate(0.005)">
    <g id="Grupo_143" data-name="Grupo 143">
      <path id="Caminho_144" data-name="Caminho 144" d="M23.553,25.625a.519.519,0,0,0-.519.519v8.145a.287.287,0,0,1-.286.286h-2.8V24.36a.519.519,0,0,0-1.037,0V34.575H13.3l1.628-1.791a.932.932,0,0,0,.224-.746v-.016L13.6,22.86l.418-.629a1.176,1.176,0,0,0,.743.322.907.907,0,0,0,.813-.5h0l1.636-3.278,3.726,1.443a3.593,3.593,0,0,1,2.092,3.267v3.509a.519.519,0,1,0,1.037.045.338.338,0,0,0,0-.045V23.482a4.629,4.629,0,0,0-2.738-4.228h-.01l-6.2-2.4v-1.46a4.863,4.863,0,0,0,1.84-3.2,2.243,2.243,0,0,0,1.319-.538,2.2,2.2,0,0,0,.235-3.1l0-.006V6.629a6.429,6.429,0,1,0-12.858,0V8.6a2.081,2.081,0,0,0-.535,1.388,2.2,2.2,0,0,0,.765,1.669A2.242,2.242,0,0,0,7.2,12.2a4.809,4.809,0,0,0,1.945,3.27v1.378l-6.2,2.4h-.01A4.629,4.629,0,0,0,.195,23.476V34.289a1.326,1.326,0,0,0,1.324,1.324H9.654a.519.519,0,0,0,0-1.037h-4.3V24.36a.519.519,0,0,0-1.037,0V34.575H1.524a.287.287,0,0,1-.286-.286V23.482A3.593,3.593,0,0,1,3.33,20.215l3.723-1.444L8.689,22.05a.907.907,0,0,0,.813.5,1.176,1.176,0,0,0,.743-.322l.418.629L9.112,32.019v.016a.932.932,0,0,0,.224.746l1.628,1.791H8.887a.519.519,0,0,0-.046,1.037h13.9a1.326,1.326,0,0,0,1.324-1.324V26.144A.52.52,0,0,0,23.553,25.625ZM16.241,18.4l-1.525,3.056-1.834-1.3,1.884-2.325Zm-3.066,3.23-.4.6H11.486l-.4-.6,1.042-.74ZM10.18,17.016v-.971a5.269,5.269,0,0,0,1.962.372,4.866,4.866,0,0,0,1.94-.4v1l-1.949,2.406ZM18,9.99a1.165,1.165,0,0,1-.4.882,1.2,1.2,0,0,1-.6.276V8.832a1.175,1.175,0,0,1,1,1.158ZM7.153,11.147a1.173,1.173,0,0,1-1-1.158,1.232,1.232,0,0,1,1-1.131ZM7.183,7.8a2.6,2.6,0,0,0-.5.112V6.629a5.392,5.392,0,1,1,10.783-.147q0,.074,0,.147V7.877A2.318,2.318,0,0,0,17,7.787c0-.5,0-.4-1.633-2.164a.923.923,0,0,0-1.178-.144A10,10,0,0,1,8.141,7.107.923.923,0,0,0,7.183,7.8Zm1.01,3.755V8.149A11.088,11.088,0,0,0,14.676,6.4c.751.806,1.158,1.229,1.289,1.39v3.765a3.887,3.887,0,0,1-7.772,0Zm1.357,9.9L8.025,18.4,9.5,17.83l1.884,2.326Zm.6,10.682,1.5-8.871h.973l1.5,8.871-1.99,2.184Z" fill="#00a9e0" stroke="#00a9e0" stroke-width="0.4"/>
    </g>
  </g>
</svg>
