<svg xmlns="http://www.w3.org/2000/svg" width="27.283" height="32.536" viewBox="0 0 27.283 32.536">
  <g id="parcel" transform="translate(-2.819 0.001)">
    <path id="Caminho_149" data-name="Caminho 149" d="M16.481,0A13.391,13.391,0,0,0,3.867,8.51,13.381,13.381,0,0,0,6.976,23.394l9.5,9.142,9.463-9.142A13.381,13.381,0,0,0,29.054,8.51,13.391,13.391,0,0,0,16.481,0ZM24.5,21.9l-8.022,7.753L8.459,21.9A11.4,11.4,0,0,1,5.784,9.328a11.513,11.513,0,0,1,21.393,0A11.4,11.4,0,0,1,24.5,21.9Z" transform="translate(0)" fill="#00a9e0"/>
    <path id="Caminho_150" data-name="Caminho 150" d="M13.164,6.7H8.5V20.174H24.047V6.7ZM17.31,8.773v2.073H15.237V8.773Zm4.664,0V18.1h-11.4V8.773h2.591v4.146h6.219V8.773Z" transform="translate(0.207 0.245)" fill="#00a9e0"/>
  </g>
</svg>
