<svg xmlns="http://www.w3.org/2000/svg" width="138.985" height="29" viewBox="0 0 138.985 29">
  <g id="Grupo_142" data-name="Grupo 142" transform="translate(-900.706 -281.575)">
    <path id="Caminho_130" data-name="Caminho 130" d="M1332.312,294.85l-2-1.4a7.3,7.3,0,0,1-3.052-5.992v-5.838h5.048Z" transform="translate(-317.828 -0.036)" fill="#00aae3"/>
    <path id="Caminho_131" data-name="Caminho 131" d="M1352.115,348.839h-5.048V333.512l2.03,1.44a7.307,7.307,0,0,1,3.017,5.967Z" transform="translate(-332.583 -38.698)" fill="#00aae3"/>
    <path id="Caminho_132" data-name="Caminho 132" d="M1371.869,295.853l-2-1.4a7.3,7.3,0,0,1-3.052-5.992v-6.889h5.048Z" transform="translate(-347.302)" fill="#00aae3"/>
    <path id="Caminho_133" data-name="Caminho 133" d="M1391.672,351.876h-5.048V337.588l2.03,1.44a7.307,7.307,0,0,1,3.018,5.967Z" transform="translate(-362.057 -41.735)" fill="#00aae3"/>
    <path id="Caminho_134" data-name="Caminho 134" d="M1411.4,296.9l-2-1.4a7.3,7.3,0,0,1-3.052-5.992v-7.935h5.048Z" transform="translate(-376.758)" fill="#00aae3"/>
    <path id="Caminho_135" data-name="Caminho 135" d="M1431.2,354.932h-5.048V341.689l2.03,1.44a7.306,7.306,0,0,1,3.017,5.967Z" transform="translate(-391.513 -44.791)" fill="#00aae3"/>
    <path id="Caminho_136" data-name="Caminho 136" d="M1118.806,324.907a6.139,6.139,0,0,1-4.431,1.568,5.566,5.566,0,0,1-5.511-5.784v-.078c0-3.087,2.032-5.706,5.432-5.706a6.74,6.74,0,0,1,4.463,1.644l2.7-4.458a11.624,11.624,0,0,0-7.085-2.306,11,11,0,0,0-11.373,10.9v.078c0,6.019,4.807,10.826,11.295,10.826a11.672,11.672,0,0,0,7.141-2.343Z" transform="translate(-150.731 -21.021)" fill="#606366"/>
    <path id="Caminho_137" data-name="Caminho 137" d="M1020.008,320.77v-.078a5.566,5.566,0,0,0-5.51-5.784c-3.4,0-5.433,2.619-5.433,5.706v.078a5.566,5.566,0,0,0,5.511,5.784c3.4,0,5.432-2.619,5.432-5.706m-16.805,0v-.078a11,11,0,0,1,11.373-10.9c6.488,0,11.295,4.807,11.295,10.826v.078a11,11,0,0,1-11.373,10.9c-6.488,0-11.295-4.807-11.295-10.826" transform="translate(-76.37 -21.021)" fill="#606366"/>
    <rect id="Retângulo_109" data-name="Retângulo 109" width="5.94" height="28.566" transform="translate(997.555 281.575)" fill="#606366"/>
    <path id="Caminho_138" data-name="Caminho 138" d="M912.079,305.455a5.566,5.566,0,0,1-5.51-5.784v-.078c0-3.088,2.032-5.706,5.432-5.706a5.566,5.566,0,0,1,5.51,5.784v.078c0,3.088-2.032,5.706-5.433,5.706m11.3-23.88h-5.941V290a11.931,11.931,0,0,0-5.354-1.23,11,11,0,0,0-11.373,10.9v.078c0,6.019,4.807,10.826,11.3,10.826a8.473,8.473,0,0,0,5.432-1.921v1.452h5.941V281.575Z" fill="#606366"/>
    <path id="Caminho_139" data-name="Caminho 139" d="M1196.32,320.77v-.078a5.566,5.566,0,0,0-5.511-5.784c-3.4,0-5.432,2.619-5.432,5.706v.078a5.566,5.566,0,0,0,5.511,5.784c3.4,0,5.432-2.619,5.432-5.706m-16.805,0v-.078a11,11,0,0,1,11.373-10.9c6.488,0,11.295,4.807,11.295,10.826v.078a11,11,0,0,1-11.373,10.9c-6.487,0-11.295-4.807-11.295-10.826" transform="translate(-207.741 -21.021)" fill="#606366"/>
  </g>
</svg>
