<svg xmlns="http://www.w3.org/2000/svg" width="162.487" height="33.904" viewBox="0 0 162.487 33.904">
  <g id="Grupo_142" data-name="Grupo 142" transform="translate(-900.706 -281.575)">
    <path id="Caminho_130" data-name="Caminho 130" d="M1333.165,297.087l-2.333-1.633a8.537,8.537,0,0,1-3.569-7.005v-6.825h5.9Z" transform="translate(-299.442 -0.034)" fill="#00aae3"/>
    <path id="Caminho_131" data-name="Caminho 131" d="M1352.968,351.431h-5.9V333.512l2.374,1.683a8.542,8.542,0,0,1,3.528,6.977Z" transform="translate(-313.344 -36.46)" fill="#00aae3"/>
    <path id="Caminho_132" data-name="Caminho 132" d="M1372.722,298.267l-2.333-1.633a8.538,8.538,0,0,1-3.569-7.005v-8.054h5.9Z" transform="translate(-327.211)" fill="#00aae3"/>
    <path id="Caminho_133" data-name="Caminho 133" d="M1392.525,354.292h-5.9v-16.7l2.374,1.683a8.542,8.542,0,0,1,3.528,6.977Z" transform="translate(-341.113 -39.321)" fill="#00aae3"/>
    <path id="Caminho_134" data-name="Caminho 134" d="M1412.255,299.489l-2.333-1.633a8.537,8.537,0,0,1-3.569-7.005v-9.276h5.9Z" transform="translate(-354.963)" fill="#00aae3"/>
    <path id="Caminho_135" data-name="Caminho 135" d="M1432.058,357.171h-5.9V341.689l2.374,1.684a8.542,8.542,0,0,1,3.528,6.976Z" transform="translate(-368.865 -42.2)" fill="#00aae3"/>
    <path id="Caminho_136" data-name="Caminho 136" d="M1121.478,327.464a7.176,7.176,0,0,1-5.18,1.834,6.507,6.507,0,0,1-6.443-6.763v-.091c0-3.609,2.376-6.671,6.351-6.671a7.879,7.879,0,0,1,5.218,1.922l3.157-5.212a13.589,13.589,0,0,0-8.283-2.7c-7.631,0-13.3,5.712-13.3,12.748v.091c0,7.036,5.62,12.657,13.2,12.657a13.646,13.646,0,0,0,8.348-2.74Z" transform="translate(-142.011 -19.805)" fill="#606366"/>
    <path id="Caminho_137" data-name="Caminho 137" d="M1022.85,322.627v-.091a6.507,6.507,0,0,0-6.442-6.762c-3.975,0-6.351,3.061-6.351,6.671v.091a6.507,6.507,0,0,0,6.443,6.763c3.975,0,6.351-3.061,6.351-6.671m-19.647,0v-.091c0-7.036,5.666-12.748,13.3-12.748,7.585,0,13.2,5.62,13.2,12.657v.091c0,7.037-5.666,12.748-13.3,12.748-7.585,0-13.2-5.62-13.2-12.657" transform="translate(-71.953 -19.805)" fill="#606366"/>
    <rect id="Retângulo_109" data-name="Retângulo 109" width="6.945" height="33.396" transform="translate(1013.932 281.575)" fill="#606366"/>
    <path id="Caminho_138" data-name="Caminho 138" d="M914,309.493a6.507,6.507,0,0,1-6.442-6.763v-.092c0-3.61,2.376-6.671,6.351-6.671a6.507,6.507,0,0,1,6.442,6.763v.091c0,3.61-2.376,6.671-6.351,6.671m13.205-27.918h-6.945v9.846a13.948,13.948,0,0,0-6.26-1.438c-7.63,0-13.3,5.712-13.3,12.748v.091c0,7.037,5.62,12.657,13.205,12.657a9.906,9.906,0,0,0,6.351-2.245v1.7h6.945V281.575Z" fill="#606366"/>
    <path id="Caminho_139" data-name="Caminho 139" d="M1199.162,322.627v-.091a6.507,6.507,0,0,0-6.443-6.762c-3.975,0-6.351,3.061-6.351,6.671v.091a6.507,6.507,0,0,0,6.443,6.763c3.975,0,6.351-3.061,6.351-6.671m-19.647,0v-.091c0-7.036,5.666-12.748,13.3-12.748,7.585,0,13.2,5.62,13.2,12.657v.091c0,7.037-5.666,12.748-13.3,12.748-7.584,0-13.2-5.62-13.2-12.657" transform="translate(-195.723 -19.805)" fill="#606366"/>
  </g>
</svg>
