<svg xmlns="http://www.w3.org/2000/svg" width="160.145" height="32.029" viewBox="0 0 160.145 32.029">
  <g id="Grupo_243" data-name="Grupo 243" transform="translate(-633 -612)">
    <g id="Retângulo_88" data-name="Retângulo 88" transform="translate(633 612)" fill="#fff" stroke="#b6b6b6" stroke-width="1">
      <rect width="48.56" height="32.029" rx="3" stroke="none"/>
      <rect x="0.5" y="0.5" width="47.56" height="31.029" rx="2.5" fill="none"/>
    </g>
    <g id="Retângulo_89" data-name="Retângulo 89" transform="translate(688.793 612)" fill="#fff" stroke="#b6b6b6" stroke-width="1">
      <rect width="48.56" height="32.029" rx="3" stroke="none"/>
      <rect x="0.5" y="0.5" width="47.56" height="31.029" rx="2.5" fill="none"/>
    </g>
    <g id="Retângulo_92" data-name="Retângulo 92" transform="translate(744.585 612)" fill="#fff" stroke="#b6b6b6" stroke-width="1">
      <rect width="48.56" height="32.029" rx="3" stroke="none"/>
      <rect x="0.5" y="0.5" width="47.56" height="31.029" rx="2.5" fill="none"/>
    </g>
    <path id="Icon_payment-visa" data-name="Icon payment-visa" d="M7.212,19.951A.9.9,0,0,0,6.2,19.224H2.6l-.026.174a7.2,7.2,0,0,1,5.422,4.521l-.781-3.969Zm1.009,5.166-.228-1.2a5.4,5.4,0,0,0-2.907-2.933L6.9,27.848H9.257l3.512-8.624H10.4L8.221,25.117ZM14.5,27.861l1.4-8.637H13.67l-1.4,8.637ZM20.6,19.076c-2.206,0-3.753,1.171-3.767,2.852-.014,1.239,1.1,1.924,1.95,2.342.875.417,1.157.7,1.157,1.076,0,.579-.7.835-1.332.835a4.233,4.233,0,0,1-2.1-.444l-.3-.148-.31,1.937a6.507,6.507,0,0,0,2.489.458c2.341.014,3.862-1.157,3.888-2.946,0-.983-.605-1.722-1.884-2.342-.78-.389-1.25-.673-1.25-1.076,0-.363.4-.74,1.278-.74a3.711,3.711,0,0,1,1.668.324l.2.107.309-1.87a5.55,5.55,0,0,0-2-.363Zm6,.148a1.1,1.1,0,0,0-1.171.727l-3.31,7.91h2.341c.377-1.062.472-1.292.472-1.292h2.852s.068.3.269,1.292h2.072l-1.8-8.637H26.6Zm-1.037,5.57s.188-.5.889-2.408c-.014.014.188-.5.3-.821l.161.74c.417,2.058.512,2.489.512,2.489H25.563Z" transform="translate(640.933 604.486)" fill="#000974"/>
    <g id="layer1" transform="translate(701.441 618.988)">
      <g id="g13" transform="translate(0 0)">
        <g id="g15" transform="translate(1.178 15.336)">
          <path id="XMLID_1775_" d="M2952.434,2901.41v-1.2a.7.7,0,0,0-.759-.759.788.788,0,0,0-.679.339.7.7,0,0,0-.639-.339.645.645,0,0,0-.559.28v-.24h-.419v1.917h.419v-1.059c0-.339.18-.5.459-.5s.419.179.419.5v1.059h.419v-1.059a.441.441,0,0,1,.459-.5c.28,0,.419.179.419.5v1.059Zm6.21-1.917h-.679v-.579h-.419v.579h-.379v.379h.379v.879c0,.439.18.7.659.7a1.12,1.12,0,0,0,.52-.14l-.12-.36a.655.655,0,0,1-.359.1c-.2,0-.28-.12-.28-.319v-.859h.679Zm3.555-.04a.563.563,0,0,0-.5.28v-.24h-.419v1.917h.419v-1.078c0-.32.14-.5.4-.5a1.189,1.189,0,0,1,.26.04l.12-.4a1.316,1.316,0,0,0-.28-.02Zm-5.372.2a1.367,1.367,0,0,0-.779-.2c-.479,0-.8.24-.8.619,0,.319.24.5.659.559l.2.02c.22.04.34.1.34.2,0,.14-.16.24-.439.24a1.1,1.1,0,0,1-.639-.2l-.2.32a1.412,1.412,0,0,0,.819.24c.559,0,.878-.26.878-.619,0-.34-.26-.519-.659-.579l-.2-.02c-.18-.02-.32-.06-.32-.18,0-.14.14-.219.36-.219a1.44,1.44,0,0,1,.6.159Zm11.143-.2a.563.563,0,0,0-.5.28v-.24h-.419v1.917h.419v-1.078c0-.32.14-.5.4-.5a1.2,1.2,0,0,1,.26.04l.12-.4a1.314,1.314,0,0,0-.28-.02Zm-5.352,1a.959.959,0,0,0,1.018,1,1,1,0,0,0,.679-.22l-.2-.34a.806.806,0,0,1-.5.18.567.567,0,0,1-.579-.619.589.589,0,0,1,.579-.619.808.808,0,0,1,.5.18l.2-.339a.994.994,0,0,0-.679-.22.959.959,0,0,0-1.018,1Zm3.874,0v-.959h-.419v.24a.722.722,0,0,0-.6-.28,1,1,0,0,0,0,2,.672.672,0,0,0,.6-.28v.24h.419Zm-1.538,0a.58.58,0,1,1,1.158,0,.58.58,0,1,1-1.158,0Zm-5.012-1a1,1,0,0,0,.02,2,1.22,1.22,0,0,0,.779-.26l-.2-.3a.953.953,0,0,1-.559.2.539.539,0,0,1-.579-.459h1.418v-.16a.882.882,0,0,0-.879-1.018Zm0,.36a.467.467,0,0,1,.479.459h-1a.506.506,0,0,1,.519-.459Zm10.4.639v-1.717h-.419v1a.72.72,0,0,0-.6-.28,1,1,0,0,0,0,2,.671.671,0,0,0,.6-.28v.24h.419Zm-1.538,0a.58.58,0,1,1,1.158,0,.58.58,0,1,1-1.158,0Zm-14.019,0v-.959h-.419v.24a.722.722,0,0,0-.6-.28,1,1,0,0,0,0,2,.672.672,0,0,0,.6-.28v.24h.419Zm-1.557,0a.58.58,0,1,1,1.158,0,.58.58,0,1,1-1.158,0Z" transform="translate(-2949.378 -2898.735)"/>
        </g>
        <g id="XMLID_328_" transform="translate(0 0)">
          <rect id="rect19" width="6.29" height="11.303" transform="translate(8.487 1.538)" fill="#ff5f00"/>
          <path id="XMLID_330_" d="M2907.621,2246.691a7.209,7.209,0,0,1,2.736-5.651,7.189,7.189,0,1,0,0,11.3A7.179,7.179,0,0,1,2907.621,2246.691Z" transform="translate(-2898.735 -2239.502)" fill="#eb001b"/>
          <path id="path22" d="M3410.789,2246.691a7.181,7.181,0,0,1-11.622,5.651,7.2,7.2,0,0,0,0-11.3,7.181,7.181,0,0,1,11.622,5.651Z" transform="translate(-3387.525 -2239.502)" fill="#f79e1b"/>
        </g>
      </g>
    </g>
    <g id="_004-barcode" data-name="004-barcode" transform="translate(756.834 619.122)">
      <g id="Grupo_44" data-name="Grupo 44" transform="translate(3.138 3.138)">
        <g id="Grupo_43" data-name="Grupo 43" transform="translate(0 0)">
          <path id="Caminho_19" data-name="Caminho 19" d="M64.523,128a.523.523,0,0,0-.523.523v10.462a.523.523,0,1,0,1.046,0V128.523A.523.523,0,0,0,64.523,128Z" transform="translate(-64 -128)" fill="#4f4f4f"/>
        </g>
      </g>
      <g id="Grupo_46" data-name="Grupo 46" transform="translate(5.231 3.138)">
        <g id="Grupo_45" data-name="Grupo 45" transform="translate(0 0)">
          <path id="Caminho_20" data-name="Caminho 20" d="M107.189,128a.523.523,0,0,0-.523.523v8.369a.523.523,0,1,0,1.046,0v-8.369A.523.523,0,0,0,107.189,128Z" transform="translate(-106.666 -128)" fill="#4f4f4f"/>
        </g>
      </g>
      <g id="Grupo_48" data-name="Grupo 48" transform="translate(7.323 3.138)">
        <g id="Grupo_47" data-name="Grupo 47" transform="translate(0 0)">
          <path id="Caminho_21" data-name="Caminho 21" d="M149.856,128a.523.523,0,0,0-.523.523v8.369a.523.523,0,1,0,1.046,0v-8.369A.523.523,0,0,0,149.856,128Z" transform="translate(-149.333 -128)" fill="#4f4f4f"/>
        </g>
      </g>
      <g id="Grupo_50" data-name="Grupo 50" transform="translate(9.415 3.138)">
        <g id="Grupo_49" data-name="Grupo 49" transform="translate(0 0)">
          <path id="Caminho_22" data-name="Caminho 22" d="M192.523,128a.523.523,0,0,0-.523.523v8.369a.523.523,0,1,0,1.046,0v-8.369A.523.523,0,0,0,192.523,128Z" transform="translate(-192 -128)" fill="#4f4f4f"/>
        </g>
      </g>
      <g id="Grupo_52" data-name="Grupo 52" transform="translate(11.508 3.138)">
        <g id="Grupo_51" data-name="Grupo 51" transform="translate(0 0)">
          <path id="Caminho_23" data-name="Caminho 23" d="M235.189,128a.523.523,0,0,0-.523.523v10.462a.523.523,0,1,0,1.046,0V128.523A.523.523,0,0,0,235.189,128Z" transform="translate(-234.666 -128)" fill="#4f4f4f"/>
        </g>
      </g>
      <g id="Grupo_54" data-name="Grupo 54" transform="translate(13.6 3.138)">
        <g id="Grupo_53" data-name="Grupo 53" transform="translate(0 0)">
          <path id="Caminho_24" data-name="Caminho 24" d="M277.856,128a.523.523,0,0,0-.523.523v8.369a.523.523,0,1,0,1.046,0v-8.369A.523.523,0,0,0,277.856,128Z" transform="translate(-277.333 -128)" fill="#4f4f4f"/>
        </g>
      </g>
      <g id="Grupo_56" data-name="Grupo 56" transform="translate(15.692 3.138)">
        <g id="Grupo_55" data-name="Grupo 55" transform="translate(0 0)">
          <path id="Caminho_25" data-name="Caminho 25" d="M320.523,128a.523.523,0,0,0-.523.523v8.369a.523.523,0,1,0,1.046,0v-8.369A.523.523,0,0,0,320.523,128Z" transform="translate(-320 -128)" fill="#4f4f4f"/>
        </g>
      </g>
      <g id="Grupo_58" data-name="Grupo 58" transform="translate(17.785 3.138)">
        <g id="Grupo_57" data-name="Grupo 57" transform="translate(0 0)">
          <path id="Caminho_26" data-name="Caminho 26" d="M363.189,128a.523.523,0,0,0-.523.523v8.369a.523.523,0,1,0,1.046,0v-8.369A.523.523,0,0,0,363.189,128Z" transform="translate(-362.666 -128)" fill="#4f4f4f"/>
        </g>
      </g>
      <g id="Grupo_60" data-name="Grupo 60" transform="translate(19.877 3.138)">
        <g id="Grupo_59" data-name="Grupo 59" transform="translate(0 0)">
          <path id="Caminho_27" data-name="Caminho 27" d="M405.856,128a.523.523,0,0,0-.523.523v10.462a.523.523,0,1,0,1.046,0V128.523A.523.523,0,0,0,405.856,128Z" transform="translate(-405.333 -128)" fill="#4f4f4f"/>
        </g>
      </g>
      <g id="Grupo_62" data-name="Grupo 62" transform="translate(5.231 13.607)">
        <g id="Grupo_61" data-name="Grupo 61" transform="translate(0 0)">
          <path id="Caminho_28" data-name="Caminho 28" d="M107.555,341.606a.548.548,0,0,0-.743.01.523.523,0,0,0-.146.366.523.523,0,0,0,1.046,0A.531.531,0,0,0,107.555,341.606Z" transform="translate(-106.666 -341.466)" fill="#4f4f4f"/>
        </g>
      </g>
      <g id="Grupo_64" data-name="Grupo 64" transform="translate(7.323 13.608)">
        <g id="Grupo_63" data-name="Grupo 63" transform="translate(0 0)">
          <path id="Caminho_29" data-name="Caminho 29" d="M150.223,341.642a.524.524,0,0,0-.732,0,.491.491,0,0,0-.157.366.531.531,0,0,0,.157.377.542.542,0,0,0,.366.146.531.531,0,0,0,.377-.157.523.523,0,0,0,.146-.366A.508.508,0,0,0,150.223,341.642Z" transform="translate(-149.334 -341.493)" fill="#4f4f4f"/>
        </g>
      </g>
      <g id="Grupo_66" data-name="Grupo 66" transform="translate(9.415 13.608)">
        <g id="Grupo_65" data-name="Grupo 65" transform="translate(0 0)">
          <path id="Caminho_30" data-name="Caminho 30" d="M192.889,341.642a.524.524,0,0,0-.732,0,.523.523,0,0,0,.366.889.531.531,0,0,0,.377-.157.523.523,0,0,0,.146-.366A.491.491,0,0,0,192.889,341.642Z" transform="translate(-192 -341.493)" fill="#4f4f4f"/>
        </g>
      </g>
      <g id="Grupo_68" data-name="Grupo 68" transform="translate(13.6 13.608)">
        <g id="Grupo_67" data-name="Grupo 67" transform="translate(0 0)">
          <path id="Caminho_31" data-name="Caminho 31" d="M278.223,341.642a.524.524,0,0,0-.732,0,.523.523,0,1,0,.732,0Z" transform="translate(-277.334 -341.493)" fill="#4f4f4f"/>
        </g>
      </g>
      <g id="Grupo_70" data-name="Grupo 70" transform="translate(15.692 13.608)">
        <g id="Grupo_69" data-name="Grupo 69" transform="translate(0 0)">
          <path id="Caminho_32" data-name="Caminho 32" d="M320.889,341.642a.524.524,0,0,0-.732,0,.523.523,0,1,0,.732,0Z" transform="translate(-320 -341.493)" fill="#4f4f4f"/>
        </g>
      </g>
      <g id="Grupo_72" data-name="Grupo 72" transform="translate(17.785 13.611)">
        <g id="Grupo_71" data-name="Grupo 71" transform="translate(0 0)">
          <path id="Caminho_33" data-name="Caminho 33" d="M363.556,341.693a.545.545,0,0,0-.732-.01.538.538,0,0,0-.157.377.523.523,0,0,0,1.046,0A.5.5,0,0,0,363.556,341.693Z" transform="translate(-362.667 -341.546)" fill="#4f4f4f"/>
        </g>
      </g>
      <g id="Grupo_74" data-name="Grupo 74" transform="translate(0 0)">
        <g id="Grupo_73" data-name="Grupo 73" transform="translate(0 0)">
          <path id="Caminho_34" data-name="Caminho 34" d="M20.4,64H3.662A3.666,3.666,0,0,0,0,67.662V78.123a3.666,3.666,0,0,0,3.662,3.662H20.4a3.666,3.666,0,0,0,3.662-3.662V67.662A3.666,3.666,0,0,0,20.4,64Zm2.615,14.123A2.619,2.619,0,0,1,20.4,80.739H3.662a2.619,2.619,0,0,1-2.615-2.615V67.662a2.619,2.619,0,0,1,2.615-2.615H20.4a2.619,2.619,0,0,1,2.615,2.615Z" transform="translate(0 -64)" fill="#4f4f4f"/>
        </g>
      </g>
    </g>
  </g>
</svg>
