<svg xmlns="http://www.w3.org/2000/svg" width="39" height="29.668" viewBox="0 0 39 29.668">
  <g id="Grupo_240" data-name="Grupo 240" transform="translate(-381 -478)">
    <g id="shopping-cart" transform="translate(381 481)">
      <path id="Caminho_152" data-name="Caminho 152" d="M9.776,17.779H25.9a.889.889,0,0,0,.855-.645L30.308,4.689a.889.889,0,0,0-.855-1.133H7.726L7.09.7A.889.889,0,0,0,6.222,0H.889a.889.889,0,1,0,0,1.778H5.509L8.719,16.221a2.667,2.667,0,0,0,1.059,5.114H25.9a.889.889,0,0,0,0-1.778H9.778a.889.889,0,0,1,0-1.778Zm18.5-12.445L25.227,16H10.491L8.121,5.334Zm0,0" fill="#fff"/>
      <path id="Caminho_153" data-name="Caminho 153" d="M150,362.667A2.667,2.667,0,1,0,152.667,360,2.67,2.67,0,0,0,150,362.667Zm2.667-.889a.889.889,0,1,1-.889.889A.89.89,0,0,1,152.667,361.778Zm0,0" transform="translate(-141.111 -338.665)" fill="#fff"/>
      <path id="Caminho_154" data-name="Caminho 154" d="M362,362.667A2.667,2.667,0,1,0,364.667,360,2.67,2.67,0,0,0,362,362.667Zm2.667-.889a.889.889,0,1,1-.889.889A.89.89,0,0,1,364.667,361.778Zm0,0" transform="translate(-340.547 -338.665)" fill="#fff"/>
    </g>
    <g id="Grupo_239" data-name="Grupo 239" transform="translate(-4 -9)">
      <circle id="Elipse_15" data-name="Elipse 15" cx="7.5" cy="7.5" r="7.5" transform="translate(409 487)" fill="#a2a2a2"/>
      <g id="Grupo_238" data-name="Grupo 238" transform="translate(0.5 1)">
        <line id="Linha_1" data-name="Linha 1" x2="7" transform="translate(412.5 493.5)" fill="none" stroke="#fff" stroke-linecap="round" stroke-width="1"/>
        <line id="Linha_2" data-name="Linha 2" x2="7" transform="translate(416 490) rotate(90)" fill="none" stroke="#fff" stroke-linecap="round" stroke-width="1"/>
      </g>
    </g>
  </g>
</svg>
